<svg version="1.1" id="Ebene_1" xmlns="http://www.w3.org/2000/svg" xmlns:xlink="http://www.w3.org/1999/xlink" x="0" y="0" viewBox="0 0 541 304" xml:space="preserve" height="70" width="125"><style/><defs><path id="SVGID_1_" d="M29.3 12.1h490.4v271.6H29.3z"/></defs><clipPath id="SVGID_00000061431531720829141150000018002913341966676112_"><use xlink:href="#SVGID_1_" overflow="visible"/></clipPath><path d="M519.7 97c0-46.9-38-84.8-84.8-84.8-37.1 0-68.7 23.9-80.2 57.1-11.5-33.2-43-57.1-80.2-57.1s-68.9 24-80.3 57.4c-11.6-33.1-43-56.9-80.1-56.9-46.9 0-84.8 38-84.8 84.8s38 84.8 84.8 84.8c37.2 0 68.9-24 80.3-57.4 11.6 33.1 43 56.8 80.1 56.8 37.1 0 68.7-23.9 80.2-57.1 11.5 33.2 43 57.1 80.2 57.1 46.8.1 84.8-37.9 84.8-84.7" clip-path="url(#SVGID_00000061431531720829141150000018002913341966676112_)" fill="#fc9"/><path d="M519.7 97c0-16.8-4.9-32.4-13.3-45.6l-8.7-1.5c-1 3.9-4.5 6.8-8.7 6.8-.3 0-.5-.1-.8-.1L474.4 143c1.7.4 3.2 1.4 4.4 2.6l37.3-24.2c2.3-7.8 3.6-15.9 3.6-24.4m-38.5 71.1c16-10.4 28.3-26.1 34.3-44.7l-35.8 23.3c1 1.4 1.5 3.2 1.5 5.1 0 3.2-1.7 6.1-4.3 7.7l4.3 8.6zm-78.4 7.4c9.9 4.1 20.7 6.3 32.1 6.3 16.6 0 32.1-4.8 45.1-13l-4.3-8.8c-1.1.5-2.3.7-3.6.7-3.6 0-6.7-2.1-8.1-5.1l-61.2 19.9zm-42.1-37.4c9 16.2 23.1 29.1 40.2 36.6l62.7-20.4c-.3-.8-.4-1.7-.4-2.6 0-5 4.1-9.1 9.1-9.1.3 0 .6.1.9.1l13.7-86.4c-2-.5-3.7-1.6-4.9-3.1l-121.3 84.9zm-14 3.4c3.2-5.2 5.9-10.9 8-16.8 1.5 4.2 3.2 8.3 5.3 12.2l121.1-84.8c-.7-1.2-1.1-2.6-1.2-4.1H365.6c-4.6 6.5-8.3 13.6-10.9 21.3-2.6-7.6-6.4-14.8-10.9-21.3h-10.2c-.2 3.1-2.4 5.6-5.4 6.2l18.5 87.3zm-13.2-94.8h9.3c-1.5-2.1-3.2-4.1-4.9-6l-5.1 3.8c.3.6.6 1.4.7 2.2m-62.8 125.4l4.7 9.7c10.4-.1 20.3-2.1 29.5-5.6l-29.5-9.6c-.7 2.4-2.5 4.4-4.7 5.5m-30.8 2.4c10.4 4.7 21.9 7.3 34 7.4l-4.5-9.2c-.8.3-1.7.4-2.6.4-3.4 0-6.4-1.9-7.9-4.7l-19 6.1zm-60.2-23.1c6.4-7.8 11.4-16.7 14.7-26.4 7.5 21.5 23.4 39 43.7 48.6l20.2-6.6c-.4-1-.6-2-.6-3.1 0-5 4.1-9.1 9.1-9.1.5 0 1 .1 1.5.2l16.6-71.9-114.2-16c-.7 2.3-2.7 4.1-5.1 4.6l14.1 79.7zm-122.1 9.4c15 13.4 34.8 21.6 56.5 21.6 25.8 0 48.9-11.5 64.4-29.6l-14.3-80.9c-2.5 0-4.7-1.4-5.9-3.5l-102 49.8c.2.7.4 1.4.4 2.2 0 3.2-2.2 5.8-5.1 6.5l6 33.9zm-20.4-27.4c4.6 9.8 11 18.6 18.7 25.9L50.2 127h-.4c-1.7 0-3.2-.6-4.4-1.7l-8.2 8.1zm8.7-18.7L30.1 86.1c-.5 3.7-.8 7.6-.8 11.5 0 12.3 2.6 24 7.3 34.5l7.9-7.7c-.9-1.2-1.5-2.6-1.5-4.2.1-2.2 1.2-4.2 2.9-5.5m40.9-97.5c-29.3 10-51.3 35.4-56.4 66.6L47.1 114c.8-.4 1.8-.6 2.8-.6.6 0 1.2.1 1.8.3l35.1-96.5zm49.3-1.6c-7-1.9-14.4-2.9-22-2.9-9 0-17.6 1.4-25.7 4l-35.5 97.5c1.2.6 2.1 1.5 2.8 2.6L157.8 67c-.2-.7-.4-1.3-.4-2.1 0-2.3 1.2-4.4 2.9-5.6l-24.2-43.7zM194 69c-9.1-25.4-30-45.3-56.1-52.9l23.7 42.7c.8-.3 1.7-.5 2.7-.5 3.8 0 6.8 3 6.8 6.8 0 .2 0 .5-.1.7l23 3.2zm91.1-56.2c-3.5-.4-7-.7-10.6-.7-5.9 0-11.7.6-17.3 1.8L282 60.5l-1.2.6-24.9-46.9C227.1 20.7 204 41.6 194.4 69l90.8 12.8 1.8-8 1.3.3-18.8 81.2c3.6 1.2 6.2 4.6 6.2 8.6 0 .4-.1.9-.1 1.3l31.2 10.1c15.9-6.6 29.4-17.9 38.7-32.3l-18.9-88.8c-1.8 0-3.4-.7-4.7-1.9l-23.3 17.6-.6-.9 23.3-17.5c-.8-1.1-1.2-2.4-1.2-3.9 0-2.9 1.9-5.4 4.4-6.4l-6.1-16.9c-9.5-5.8-20.3-9.7-31.8-11.3v50h-1.4V12.8zM337 39.6c-5-5.4-10.6-10.1-16.8-14.1l5.6 15.4c.3-.1.7-.1 1-.1 2.1 0 4 1 5.3 2.5l4.9-3.7zm139.9-16.3c-12.4-7.1-26.8-11.2-42.1-11.2-28 0-52.8 13.6-68.3 34.5h113.3c.3-3.1 2.2-5.8 4.9-7.1l-7.8-16.2zm28.5 26.5C498.5 39.6 489.5 31 479 24.5l7.1 14.5c.9-.3 1.8-.5 2.8-.5 5 0 9.1 4.1 9.1 9.1 0 .3-.1.6-.1.9l7.5 1.3z" clip-path="url(#SVGID_00000061431531720829141150000018002913341966676112_)" fill="#ec6825"/><path d="M504.5 283.7c4 0 7.1-.9 9.4-2.6v-11.8H505v3.6h4.3v5.7c-1.2.6-2.7.9-4.6.9-1.8 0-3.3-.4-4.7-1.1-1.4-.7-2.4-1.8-3.2-3.1-.8-1.4-1.2-3-1.2-4.8 0-1.8.4-3.4 1.2-4.8.8-1.4 1.9-2.4 3.3-3.1 1.4-.7 3-1.1 4.7-1.1 1.7 0 3.3.2 4.7.6 1.4.4 2.6 1.1 3.7 2v-4.4c-1.2-.8-2.4-1.5-3.9-1.8-1.4-.4-3-.6-4.8-.6-2.7 0-5 .5-7 1.6s-3.6 2.6-4.8 4.6c-1.1 2-1.7 4.3-1.7 7s.6 5 1.7 7 2.7 3.5 4.8 4.6c2 1.1 4.3 1.6 7 1.6m-39.3-.5h4.6v-17.6l11.8 17.6h4.3v-25.3h-4.6v17.6l-11.8-17.6h-4.3v25.3zm-16.4.5c3.6 0 6.3-.9 8.1-2.8 1.8-1.9 2.7-4.4 2.7-7.6v-15.4H455v15.5c0 2-.6 3.5-1.7 4.6-1.1 1-2.6 1.6-4.5 1.6s-3.4-.5-4.5-1.6c-1.1-1-1.7-2.6-1.7-4.6v-15.5H438v15.4c0 3.2.9 5.7 2.7 7.6 1.9 1.9 4.5 2.8 8.1 2.8m-37.7-.5h4.6v-11h12.1v11h4.6v-25.3h-4.6v10.5h-12.1v-10.5h-4.6v25.3zm-14.1.5c3.8 0 6.8-.9 9-2.6v-4.4c-1.2 1-2.5 1.7-3.9 2.2-1.4.4-3 .7-4.8.7-1.8 0-3.4-.4-4.8-1.1-1.4-.7-2.5-1.8-3.3-3.1-.8-1.3-1.2-2.9-1.2-4.8s.4-3.4 1.2-4.8 1.9-2.4 3.3-3.1c1.4-.7 3-1.1 4.9-1.1 3.5 0 6.3.9 8.3 2.7v-4.4c-2.3-1.7-5.3-2.5-8.7-2.5-2.7 0-5 .5-7 1.6s-3.6 2.6-4.8 4.6c-1.1 2-1.7 4.3-1.7 7s.6 5 1.7 7 2.7 3.5 4.8 4.6c2 1 4.4 1.5 7 1.5m-26.5 0c3.2 0 5.5-.6 7.2-1.9 1.6-1.2 2.4-3 2.4-5.2 0-1.3-.2-2.4-.7-3.3-.5-.9-1.2-1.7-2.2-2.4-1-.7-2.3-1.4-4-2.1-1.7-.7-2.8-1.2-3.5-1.5-.6-.3-1.2-.7-1.5-1.2-.4-.5-.6-1.1-.6-1.8 0-1 .4-1.8 1.3-2.4.8-.6 2-.8 3.6-.8 2.1 0 4.3.5 6.4 1.5v-3.8c-1.1-.5-2.2-.8-3.3-1.1-1.1-.2-2.4-.3-3.8-.3-1.8 0-3.3.3-4.7.9-1.4.6-2.4 1.4-3.1 2.5-.7 1.1-1.1 2.3-1.1 3.6 0 1.8.5 3.2 1.6 4.4 1.1 1.2 2.8 2.3 5.1 3.2 1.5.6 2.7 1.1 3.4 1.5.7.4 1.3.8 1.7 1.3.4.5.6 1.1.6 1.9 0 1.1-.4 1.9-1.3 2.5-.8.6-2.1.9-3.7.9-1.3 0-2.6-.1-3.9-.4-1.3-.3-2.6-.7-3.8-1.3v3.9c.9.5 2.1.8 3.6 1.1 1.3.2 2.8.3 4.3.3m-27.1-13.6v-8.4h5.1c3.3 0 5 1.4 5 4.2 0 1.4-.5 2.4-1.4 3.1-.9.7-2.1 1-3.6 1h-5.1zm-4.6 13.1h4.6v-9.3h5l4.9 9.3h4.7l-5.1-9.7c1.7-.6 3-1.5 3.9-2.8.9-1.3 1.4-2.9 1.4-4.7 0-2.6-.8-4.6-2.3-6-1.5-1.4-3.7-2.1-6.5-2.1h-10.6v25.3zm-18.4-3.6c-1.6 0-3.1-.4-4.4-1.1-1.3-.7-2.4-1.8-3.2-3.1-.8-1.4-1.2-2.9-1.2-4.8 0-1.8.4-3.4 1.2-4.7.8-1.4 1.8-2.4 3.2-3.2 1.3-.7 2.8-1.1 4.5-1.1s3.1.4 4.4 1.1c1.3.7 2.4 1.8 3.1 3.2s1.2 2.9 1.2 4.7c0 1.8-.4 3.4-1.2 4.8-.8 1.4-1.8 2.4-3.2 3.1-1.3.7-2.8 1.1-4.4 1.1m0 4.1c2.5 0 4.8-.6 6.8-1.7s3.6-2.7 4.8-4.6c1.2-2 1.8-4.3 1.8-6.8s-.6-4.9-1.8-6.9c-1.2-2-2.8-3.6-4.8-4.7s-4.3-1.7-6.8-1.7-4.8.6-6.8 1.7-3.6 2.7-4.8 4.7c-1.2 2-1.8 4.3-1.8 6.9s.6 4.9 1.8 6.9c1.2 2 2.8 3.5 4.8 4.6 2 1.1 4.3 1.6 6.8 1.6m-33.2-.5h4.6v-10.9h9.3v-3.4h-9.3v-7.1h12.5V258h-17.1v25.2zm-14.6.5c3.2 0 5.5-.6 7.2-1.9 1.6-1.2 2.4-3 2.4-5.2 0-1.3-.2-2.4-.7-3.3-.5-.9-1.2-1.7-2.2-2.4-1-.7-2.3-1.4-4-2.1-1.7-.7-2.8-1.2-3.5-1.5-.6-.3-1.2-.7-1.5-1.2s-.6-1.1-.6-1.8c0-1 .4-1.8 1.3-2.4.8-.6 2-.8 3.6-.8 2.1 0 4.3.5 6.4 1.5v-3.8c-1.1-.5-2.2-.8-3.3-1.1-1.1-.2-2.4-.3-3.8-.3-1.8 0-3.3.3-4.7.9-1.4.6-2.4 1.4-3.1 2.5-.7 1.1-1.1 2.3-1.1 3.6 0 1.8.5 3.2 1.6 4.4 1.1 1.2 2.8 2.3 5.1 3.2 1.5.6 2.7 1.1 3.4 1.5.7.4 1.3.8 1.7 1.3.4.5.6 1.1.6 1.9 0 1.1-.4 1.9-1.3 2.5-.8.6-2.1.9-3.7.9-1.3 0-2.6-.1-3.9-.4-1.3-.3-2.6-.7-3.8-1.3v3.9c.9.5 2.1.8 3.6 1.1 1.3.2 2.8.3 4.3.3m-23-.5h4.6v-21.5h7.6v-3.8H242v3.8h7.6v21.5zm-16.5 0h4.6v-25.3h-4.6v25.3zm-21.8 0h17.1v-3.8h-12.5v-6.9h9.3v-3.8h-9.3v-6.9h12.5V258h-17.1v25.2zm-27.1 0h4.6v-11h12.1v11h4.6v-25.3h-4.6v10.5h-12.1v-10.5h-4.6v25.3zm-22.4-3.8v-17.7h4c1.8 0 3.3.4 4.6 1.1 1.3.7 2.3 1.8 3 3.1.7 1.3 1 2.8 1 4.5 0 2.8-.8 5-2.4 6.6-1.6 1.6-3.8 2.4-6.8 2.4h-3.4zm-4.5 3.8h8.1c4.4 0 7.8-1.1 10.2-3.2 2.4-2.2 3.6-5.3 3.6-9.5 0-2.6-.5-4.8-1.6-6.6-1.1-1.9-2.6-3.3-4.7-4.3-2-1-4.4-1.5-7.2-1.5h-8.5v25.1zm-26.6 0h4.6v-17.6l11.8 17.6h4.3v-25.3h-4.6v17.6L135 257.9h-4.3v25.3zm-16.3.5c3.6 0 6.3-.9 8.1-2.8 1.8-1.9 2.7-4.4 2.7-7.6v-15.4h-4.6v15.5c0 2-.6 3.5-1.7 4.6-1.1 1-2.6 1.6-4.5 1.6s-3.4-.5-4.5-1.6c-1.1-1-1.7-2.6-1.7-4.6v-15.5h-4.6v15.4c0 3.2.9 5.7 2.7 7.6 1.8 1.9 4.5 2.8 8.1 2.8m-25.3 0c3.2 0 5.5-.6 7.2-1.9s2.4-3 2.4-5.2c0-1.3-.2-2.4-.7-3.3-.5-.9-1.2-1.7-2.2-2.4-1-.7-2.3-1.4-4-2.1-1.7-.7-2.8-1.2-3.5-1.5-.6-.3-1.2-.7-1.5-1.2-.4-.5-.6-1.1-.6-1.8 0-1 .4-1.8 1.3-2.4.8-.6 2-.8 3.6-.8 2.1 0 4.3.5 6.4 1.5v-3.8c-1.1-.5-2.2-.8-3.3-1.1-1.1-.2-2.4-.3-3.8-.3-1.8 0-3.3.3-4.7.9-1.3.6-2.4 1.4-3.1 2.5-.7 1.1-1.1 2.3-1.1 3.6 0 1.8.5 3.2 1.6 4.4 1.1 1.2 2.8 2.3 5.1 3.2 1.5.6 2.7 1.1 3.4 1.5.7.4 1.3.8 1.7 1.3.4.5.6 1.1.6 1.9 0 1.1-.4 1.9-1.3 2.5-.8.6-2.1.9-3.7.9-1.3 0-2.6-.1-3.9-.4-1.3-.3-2.6-.7-3.8-1.3v3.9c.9.5 2.1.8 3.6 1.1 1.3.2 2.8.3 4.3.3m-29.1-.5h17.1v-3.8H64.6v-6.9h9.3v-3.8h-9.3v-6.9h12.5V258H60v25.2zm-14.4.5c4 0 7.1-.9 9.4-2.6v-11.8h-8.9v3.6h4.3v5.7c-1.2.6-2.7.9-4.6.9-1.8 0-3.3-.4-4.7-1.1-1.4-.7-2.4-1.8-3.2-3.1-.8-1.4-1.2-3-1.2-4.8 0-1.8.4-3.4 1.2-4.8.8-1.4 1.9-2.4 3.3-3.1 1.4-.7 3-1.1 4.7-1.1 1.7 0 3.3.2 4.7.6 1.4.4 2.6 1.1 3.7 2v-4.4c-1.2-.8-2.4-1.5-3.9-1.8-1.4-.4-3-.6-4.8-.6-2.7 0-5 .5-7 1.6s-3.6 2.6-4.8 4.6c-1.1 2-1.7 4.3-1.7 7s.6 5 1.7 7 2.7 3.5 4.8 4.6c2 1.1 4.3 1.6 7 1.6m451.9-57.5v-8.4h5.1c3.3 0 5 1.4 5 4.2 0 1.4-.5 2.4-1.4 3.1-.9.7-2.1 1-3.6 1h-5.1zm-4.6 13.1h4.6V230h5l4.9 9.3h4.7l-5.1-9.7c1.7-.6 3-1.5 3.9-2.8.9-1.3 1.4-2.9 1.4-4.7 0-2.6-.8-4.6-2.3-6-1.5-1.4-3.7-2.1-6.5-2.1h-10.6v25.3zm-22.8 0h17.1v-3.8h-12.5v-6.9h9.3v-3.8h-9.3v-6.9h12.5V214h-17.1v25.3zm-23.5-3.8v-17.7h4c1.8 0 3.3.4 4.6 1.1 1.3.7 2.3 1.8 3 3.1.7 1.3 1 2.8 1 4.5 0 2.8-.8 5-2.4 6.6-1.6 1.6-3.8 2.4-6.8 2.4h-3.4zm-4.6 3.8h8.1c4.4 0 7.8-1.1 10.2-3.2 2.4-2.2 3.6-5.3 3.6-9.5 0-2.6-.5-4.8-1.6-6.6-1.1-1.9-2.6-3.3-4.7-4.3-2-1-4.4-1.5-7.2-1.5H442v25.1zm-43.1 0h4.6v-17.6l11.8 17.6h4.3V214H415v17.6L403.2 214h-4.3v25.3zm-22.9 0h17.1v-3.8h-12.5v-6.9h9.3v-3.8h-9.3v-6.9h12.5V214H376v25.3zm-20.9-13.1v-8.4h5.1c3.3 0 5 1.4 5 4.2 0 1.4-.5 2.4-1.4 3.1-.9.7-2.1 1-3.6 1h-5.1zm-4.5 13.1h4.6V230h5l4.9 9.3h4.7l-5.1-9.7c1.7-.6 3-1.5 3.9-2.8.9-1.3 1.4-2.9 1.4-4.7 0-2.6-.8-4.6-2.3-6-1.5-1.4-3.7-2.1-6.5-2.1h-10.6v25.3zm-17.7 0h4.6v-21.5h7.6V214h-19.8v3.8h7.6v21.5zm-33.8 0h4.6v-17.6l11.8 17.6h4.3V214h-4.6v17.6L303.5 214h-4.3v25.3zm-22.8 0h17.1v-3.8h-12.5v-6.9h9.3v-3.8h-9.3v-6.9h12.5V214h-17.1v25.3zm-25.7 0h19.5v-3.8h-13.8l13.2-18.5v-3H251v3.8h12.9l-13.2 18.5v3zm-37.7 0H230v-3.8h-12.5v-6.9h9.3v-3.8h-9.3v-6.9H230V214h-17.1v25.3zm-28.1 0h4.6v-11h12.1v11h4.6V214h-4.6v10.5h-12.1V214h-4.6v25.3zm-15.2.5c3.8 0 6.8-.9 9-2.6v-4.4c-1.2 1-2.5 1.7-3.9 2.2-1.4.4-3 .7-4.8.7-1.8 0-3.4-.4-4.8-1.1-1.4-.7-2.5-1.8-3.3-3.1-.8-1.3-1.2-2.9-1.2-4.8 0-1.8.4-3.4 1.2-4.8.8-1.3 1.9-2.4 3.3-3.1 1.4-.7 3-1.1 4.9-1.1 3.5 0 6.3.9 8.3 2.7V216c-2.3-1.7-5.3-2.5-8.7-2.5-2.7 0-5 .5-7 1.6s-3.6 2.6-4.8 4.6c-1.1 2-1.7 4.3-1.7 7s.6 5 1.7 7 2.7 3.5 4.8 4.6c2 1 4.4 1.5 7 1.5m-27.6 0c3.2 0 5.5-.6 7.2-1.9 1.6-1.2 2.4-3 2.4-5.2 0-1.3-.2-2.4-.7-3.3-.5-.9-1.2-1.7-2.2-2.4-1-.7-2.3-1.4-4-2.1-1.7-.7-2.8-1.2-3.5-1.5-.6-.3-1.1-.7-1.5-1.2-.4-.5-.6-1.1-.6-1.8 0-1 .4-1.8 1.3-2.4.8-.6 2-.8 3.6-.8 2.1 0 4.3.5 6.4 1.5v-3.8c-1.1-.5-2.2-.8-3.3-1.1-1.1-.2-2.4-.3-3.8-.3-1.8 0-3.3.3-4.7.9-1.3.6-2.4 1.4-3.1 2.5-.7 1.1-1.1 2.3-1.1 3.6 0 1.8.5 3.2 1.6 4.4 1.1 1.2 2.8 2.3 5.1 3.2 1.5.6 2.7 1.1 3.4 1.5.7.4 1.3.8 1.7 1.3.4.5.6 1.1.6 1.9 0 1.1-.4 1.9-1.3 2.5-.8.6-2.1.9-3.7.9-1.3 0-2.6-.1-3.9-.4s-2.6-.7-3.8-1.3v3.9c.9.5 2.1.8 3.6 1.1 1.3.2 2.8.3 4.3.3m-24-.5h4.6v-21.5h7.6V214h-19.8v3.8h7.6v21.5zm-23.7.5c3.6 0 6.3-.9 8.1-2.8 1.8-1.9 2.7-4.4 2.7-7.6V214h-4.6v15.5c0 2-.6 3.5-1.7 4.6-1.1 1-2.6 1.6-4.5 1.6s-3.4-.5-4.5-1.6c-1.1-1-1.7-2.6-1.7-4.6V214h-4.6v15.4c0 3.2.9 5.7 2.7 7.6 1.9 1.9 4.6 2.8 8.1 2.8m-33.5-.5h17.1v-3.8H65.4v-6.9h9.3v-3.8h-9.3v-6.9h12.5V214H60.8v25.3zm-23.4-3.8v-17.7h4c1.8 0 3.3.4 4.6 1.1 1.3.7 2.3 1.8 3 3.1.7 1.3 1 2.8 1 4.5 0 2.8-.8 5-2.4 6.6-1.6 1.6-3.8 2.4-6.8 2.4h-3.4zm-4.6 3.8h8.1c4.4 0 7.8-1.1 10.2-3.2 2.4-2.2 3.6-5.3 3.6-9.5 0-2.6-.5-4.8-1.6-6.6-1.1-1.9-2.6-3.3-4.7-4.3-2-1-4.4-1.5-7.2-1.5h-8.5v25.1z" clip-path="url(#SVGID_00000061431531720829141150000018002913341966676112_)" fill="#1d1d1b"/><path d="M136.5 97.6c0 8.4-2.2 14.9-6.7 19.6-4.5 4.7-11 7.1-19.4 7.1H99.6V71.7h12c5.1 0 9.6 1.1 13.4 3.3 3.8 2.2 6.7 5.3 8.6 9.2 1.9 4 2.9 8.5 2.9 13.4m18.3 0c0-8.4-1.8-15.6-5.4-21.8-3.6-6.2-8.8-10.9-15.5-14.2-6.7-3.3-14.6-5-23.6-5H81.6v82.7h27.8c14.3 0 25.4-3.5 33.4-10.6 8-6.9 12-17.3 12-31.1" clip-path="url(#SVGID_00000061431531720829141150000018002913341966676112_)" fill="#fff"/><path fill="#fff" d="M243.3 139.4h65v-15h-42.6L306 68.8V56.7h-61.7v15h39.4l-40.4 55.8z"/><defs><path id="SVGID_00000121958700736111311800000006892710899713638835_" d="M29.3 12.1h490.4v271.6H29.3z"/></defs><clipPath id="SVGID_00000129170622310058275060000011166063943869552798_"><use xlink:href="#SVGID_00000121958700736111311800000006892710899713638835_" overflow="visible"/></clipPath><path d="M440.7 141.2c12.8 0 23.1-2.7 30.9-8V93.3h-30.8v13.3h13.4v16c-3.6 1.7-7.9 2.6-12.8 2.6-5.4 0-10.1-1.1-14.2-3.3-4.1-2.2-7.3-5.3-9.5-9.4-2.2-4.1-3.4-8.8-3.4-14.3 0-5.4 1.2-10.1 3.7-14.1 2.4-4 5.8-7.1 10-9.3 4.2-2.2 9-3.3 14.3-3.3 5.7 0 10.7.7 15.2 2s8.4 3.4 11.9 6.2V62.5c-3.9-2.6-8.1-4.5-12.7-5.7-4.6-1.2-9.9-1.8-15.9-1.8-8.8 0-16.6 1.8-23.4 5.3-6.8 3.5-12 8.5-15.7 15-3.7 6.5-5.6 14.1-5.6 22.9s1.9 16.4 5.6 22.8c3.7 6.5 9 11.5 15.7 15 6.6 3.4 14.4 5.2 23.3 5.2" clip-path="url(#SVGID_00000129170622310058275060000011166063943869552798_)" fill="#fff"/></svg>