<svg xmlns="http://www.w3.org/2000/svg" width="146" height="100" viewBox="0 0 146 100"><path fill="#D9DADB" d="M51.037 25.489c-.186 12.292-8.787 22.676-20.85 25.099-6.064 1.217-12.392-.101-17.696-3.172C5.618 43.434 2.377 35.595 2.26 27.924 2.073 15.669 11.322 5.189 23.112 2.823c6.065-1.217 12.393.1 17.696 3.172 6.873 3.983 10.114 11.824 10.229 19.494M36.024 2.261c-11.72-5.476-25.767-.594-32.438 10.187C-2.989 23.075.02 35.991 8.206 44.661c8.351 8.845 21.152 11.481 32.017 5.605 8.121-4.393 12.934-13.187 13.073-22.287-.169-11-7.387-21.098-17.272-25.718"/><path fill="#001E50" d="M145.888 92.815v-.525h-1.683a2.465 2.465 0 00-.605-.226 3.056 3.056 0 00-.706-.077 3.12 3.12 0 00-.928.132 2.206 2.206 0 00-.735.379 1.763 1.763 0 00-.484.599 1.753 1.753 0 00-.173.784c0 .356.084.669.253.936.168.267.401.479.698.638-.13.065-.241.139-.337.22a1.357 1.357 0 00-.236.261 1.153 1.153 0 00-.14.275.934.934 0 00-.046.271c0 .213.044.386.132.519.086.134.203.24.348.319-.297.111-.528.26-.696.445a1 1 0 00-.25.689c0 .202.052.396.159.583.105.186.267.351.481.493.216.142.485.256.812.343a4.65 4.65 0 001.159.127c.447 0 .847-.058 1.197-.174.349-.115.645-.269.887-.459.24-.19.426-.406.552-.65.129-.243.192-.494.192-.752 0-.278-.055-.505-.163-.682a1.193 1.193 0 00-.427-.42 2.014 2.014 0 00-.603-.224 5.342 5.342 0 00-.689-.101 12.044 12.044 0 00-.689-.037 6.66 6.66 0 01-.604-.042 1.301 1.301 0 01-.426-.118.273.273 0 01-.163-.259c0-.138.09-.261.273-.371.209.041.424.063.645.063.328 0 .629-.045.909-.136a2.21 2.21 0 00.725-.378c.202-.163.363-.362.479-.596a1.76 1.76 0 00.174-.785 1.801 1.801 0 00-.119-.661l.524-.098c.11-.02.188-.054.234-.102.046-.047.069-.116.069-.203zm-4.223 5.044a1.25 1.25 0 01.385-.311c.173.022.355.038.544.048s.371.02.548.028c.176.01.344.024.502.044.157.018.294.049.413.087a.688.688 0 01.28.169c.068.071.103.165.103.279s-.028.22-.087.316a.712.712 0 01-.27.252c-.124.07-.281.125-.473.165-.188.04-.414.06-.677.06a3.47 3.47 0 01-.657-.054 1.484 1.484 0 01-.436-.152.644.644 0 01-.245-.23.563.563 0 01-.077-.288.637.637 0 01.147-.413zm2.266-3.944c0 .142-.021.271-.065.389a.824.824 0 01-.514.498 1.313 1.313 0 01-.457.072c-.172 0-.322-.024-.453-.072a.871.871 0 01-.326-.199.844.844 0 01-.193-.306 1.075 1.075 0 01-.065-.382c0-.288.086-.518.259-.687.173-.17.434-.255.779-.255s.604.085.778.255c.172.169.257.399.257.687zm-16.593-61.032h18.1v-6.391h-25.751V69.67h7.651V52.082h15.276v-6.419h-15.276v-12.78zm-7.614 46.819c-.146.04-.282.094-.409.163a1.882 1.882 0 00-.358.246 3.068 3.068 0 00-.324.312l-.091-.434c-.056-.171-.178-.256-.358-.256h-.861v5.851h1.408v-4.282c.152-.175.316-.313.494-.414.175-.102.364-.151.566-.151.309 0 .541.089.699.269.157.179.236.464.236.855v3.724h1.413v-3.724c0-.184.028-.346.082-.484.052-.141.125-.258.219-.352s.202-.164.324-.214c.124-.05.258-.074.403-.074.314 0 .556.094.719.282s.244.47.244.842v3.724h1.41v-3.724a2.97 2.97 0 00-.136-.941 1.876 1.876 0 00-.392-.694 1.646 1.646 0 00-.631-.435 2.32 2.32 0 00-.861-.148 2.54 2.54 0 00-.556.062 1.935 1.935 0 00-.974.532 1.825 1.825 0 00-.341.5 1.791 1.791 0 00-.533-.795c-.237-.2-.54-.3-.909-.3-.176.001-.337.02-.483.06zm-1.303 12.296a3.08 3.08 0 00-1.221.229 2.483 2.483 0 00-.889.632 2.704 2.704 0 00-.545.952 3.7 3.7 0 00-.186 1.194c0 .479.07.905.209 1.281.139.373.327.689.563.948.239.259.517.456.836.591.32.135.659.201 1.021.201.206 0 .412-.015.622-.045a2.825 2.825 0 001.174-.452c.183-.124.353-.277.508-.46l-.404-.514a.288.288 0 00-.257-.131.376.376 0 00-.238.082 4.055 4.055 0 01-.246.183c-.095.066-.213.128-.352.183s-.319.083-.545.083a1.37 1.37 0 01-.604-.129 1.222 1.222 0 01-.457-.375c-.126-.165-.222-.371-.288-.614s-.101-.521-.101-.832c0-.3.031-.57.092-.808.062-.237.153-.439.276-.606.124-.168.279-.296.466-.386.186-.089.401-.134.649-.134a1.543 1.543 0 01.828.213c.094.055.176.104.245.148a.376.376 0 00.21.065c.075 0 .134-.016.174-.046s.082-.072.123-.125l.372-.513a2.802 2.802 0 00-.889-.605 2.898 2.898 0 00-1.146-.21zm-3.467-6.413h.861v-5.851h-1.408v4.231c-.19.189-.393.339-.605.447s-.441.163-.685.163c-.329 0-.577-.099-.743-.294-.166-.196-.249-.473-.249-.83v-3.718h-1.408v3.718c0 .327.042.626.127.897.087.272.213.508.38.706.169.196.374.349.618.457.247.109.528.163.849.163a2.355 2.355 0 001.017-.225 2.32 2.32 0 00.414-.256 4.17 4.17 0 00.377-.335l.096.468c.057.174.176.259.359.259zm-1.549 10.418a.47.47 0 01.123.336.66.66 0 01-.055.266.614.614 0 01-.17.226.952.952 0 01-.296.156c-.12.04-.264.06-.432.06-.214 0-.39-.024-.528-.074s-.259-.102-.361-.159a5.702 5.702 0 01-.271-.159.46.46 0 00-.248-.074.412.412 0 00-.218.052.447.447 0 00-.148.146l-.324.537c.113.103.246.197.396.285a3.212 3.212 0 001.044.378c.192.037.389.055.591.055.376 0 .709-.048 1.001-.145.291-.096.535-.232.733-.405.196-.173.346-.378.449-.616.103-.236.154-.496.154-.777 0-.236-.04-.438-.123-.605a1.385 1.385 0 00-.324-.43c-.136-.12-.289-.219-.459-.297s-.347-.148-.525-.209-.353-.117-.523-.168a3.022 3.022 0 01-.459-.174 1.087 1.087 0 01-.327-.224.452.452 0 01-.122-.317c0-.191.08-.345.24-.463.16-.117.378-.177.656-.177.179 0 .333.019.464.057.131.039.248.082.352.129.102.048.193.09.271.128a.49.49 0 00.221.057.31.31 0 00.158-.036.399.399 0 00.12-.129l.318-.506a2.428 2.428 0 00-.825-.525 2.91 2.91 0 00-1.102-.201c-.361 0-.68.049-.957.146a2.088 2.088 0 00-.688.388 1.617 1.617 0 00-.419.567 1.67 1.67 0 00-.144.685c0 .259.041.479.124.661.081.183.189.337.324.462.137.126.29.23.462.312.173.082.351.153.531.213.181.062.357.117.529.168.175.053.329.109.462.176a.979.979 0 01.325.224zM102.887 69.67h7.624V26.492h-7.624V69.67zm.628 8.272h-.73a.334.334 0 00-.208.063.272.272 0 00-.105.176l-.297 1.598-.941.154v.559c0 .1.028.174.083.223.056.05.12.074.197.074h.592v3.267c0 .506.138.903.411 1.19.275.286.663.43 1.169.43.286 0 .561-.044.827-.131.267-.088.503-.217.708-.388l-.422-.685a.508.508 0 00-.087-.094.159.159 0 00-.102-.031.201.201 0 00-.104.031 2.24 2.24 0 01-.117.066 1.98 1.98 0 01-.152.065.67.67 0 01-.221.03.468.468 0 01-.365-.153c-.091-.104-.136-.245-.136-.427v-3.172h1.538v-1.004h-1.538v-1.841zm-1.169 14.056c-.438 0-.835.071-1.192.212s-.662.341-.916.6a2.651 2.651 0 00-.587.946 3.545 3.545 0 00-.208 1.249c0 .464.069.882.208 1.254.139.374.334.69.587.953.254.263.559.464.916.605.357.139.755.209 1.192.209.437 0 .833-.07 1.188-.209.356-.142.659-.343.909-.605.252-.263.444-.579.582-.953.137-.372.205-.79.205-1.254 0-.461-.068-.877-.205-1.249a2.641 2.641 0 00-.582-.946 2.55 2.55 0 00-.909-.6 3.197 3.197 0 00-1.188-.212zm-1.096 1.578c.235-.334.601-.499 1.096-.499.486 0 .847.165 1.08.496.234.331.352.812.352 1.442 0 .632-.117 1.111-.352 1.438-.233.325-.594.49-1.08.49-.495 0-.86-.166-1.096-.493-.236-.329-.354-.808-.354-1.436 0-.625.118-1.105.354-1.438zm-2.281-7.991h1.408v-3.724c0-.328-.042-.626-.127-.898a2.05 2.05 0 00-.377-.702 1.7 1.7 0 00-.619-.455 2.087 2.087 0 00-.851-.163c-.197 0-.379.02-.546.058a2.02 2.02 0 00-.471.165 2.555 2.555 0 00-.417.257 3.048 3.048 0 00-.373.33l-.096-.463c-.058-.171-.178-.256-.36-.256h-.86v5.851h1.407v-4.23a2.42 2.42 0 01.604-.451c.213-.111.441-.166.684-.166.332 0 .58.099.745.295.166.195.248.471.248.829v3.723h.001zm-3.424-53.628c.49-.756.736-1.592.736-2.508v-2.956H66.07v6.39h20.385L65.447 64.324a4.812 4.812 0 00-.507 1.03 3.391 3.391 0 00-.199 1.149v3.166h31.031v-6.42H74.597l20.948-31.292zM65.67 79.643c-.369 0-.689.067-.963.199-.274.134-.525.31-.754.524V77.11h-1.408v8.475h1.408v-4.23c.19-.191.392-.341.604-.451.214-.111.441-.166.685-.166.331 0 .579.099.745.295.165.195.248.471.248.829v3.724h1.407v-3.724c0-.328-.043-.626-.127-.898a2.016 2.016 0 00-.377-.702 1.7 1.7 0 00-.619-.455 2.048 2.048 0 00-.849-.164zM61.467 56.8c.998-2.647 1.497-5.554 1.497-8.719 0-3.166-.499-6.071-1.497-8.719s-2.4-4.922-4.207-6.824c-1.808-1.9-3.982-3.383-6.523-4.448s-5.355-1.598-8.442-1.598H26.709V69.67h15.586c3.087 0 5.901-.529 8.442-1.583 2.541-1.055 4.716-2.539 6.523-4.448 1.807-1.912 3.209-4.191 4.207-6.839zm-6.268-8.719c0 2.37-.302 4.494-.903 6.375-.604 1.881-1.46 3.473-2.57 4.776a11.097 11.097 0 01-4.053 3.002c-1.589.697-3.383 1.045-5.378 1.045H34.36V32.883h7.935c1.995 0 3.79.348 5.378 1.045a11.1 11.1 0 014.053 3c1.11 1.305 1.966 2.896 2.57 4.779.601 1.881.903 4.006.903 6.374zM29.827 77.339h-3.148v8.246h3.148c.624 0 1.192-.102 1.706-.303.513-.2.952-.484 1.317-.85.365-.364.648-.799.85-1.307a4.466 4.466 0 00.302-1.664c0-.605-.101-1.16-.302-1.666a3.817 3.817 0 00-.85-1.303 3.852 3.852 0 00-1.317-.849 4.608 4.608 0 00-1.706-.304zm-1.603 1.22h1.603c.403 0 .766.067 1.086.2.322.134.594.323.818.572.225.25.397.554.52.913.122.359.183.766.183 1.218s-.061.858-.183 1.218a2.576 2.576 0 01-.52.912c-.224.25-.497.439-.818.573a2.814 2.814 0 01-1.086.199h-1.603v-5.805zM26.85 92.142h-.873v.576c0 .103.034.182.101.239a.534.534 0 00.265.114l.508.08v4.79h1.408v-4.796h1.478v-1.004h-1.523v-.388c0-.217.023-.397.071-.544a.845.845 0 01.208-.354.734.734 0 01.333-.188 1.65 1.65 0 01.448-.055c.125 0 .235-.014.331-.04.095-.027.146-.096.154-.206l.028-.707a2.55 2.55 0 00-.752-.107c-.338 0-.643.05-.913.147-.27.101-.5.242-.687.429a1.888 1.888 0 00-.435.679c-.101.267-.15.566-.15.9v.435zm-1.796-74.218a8.337 8.337 0 10-16.672 0 8.336 8.336 0 0016.672 0zm7.502 73.191a.737.737 0 00.237-.542.764.764 0 00-.063-.31.822.822 0 00-.736-.489c-.102 0-.2.021-.293.063a.822.822 0 00-.419.426.76.76 0 00.17.852.852.852 0 00.249.163c.093.04.191.06.293.06a.846.846 0 00.562-.223zm-.67.976h-1.409v3.719c0 .326.043.626.128.897s.211.507.379.704c.167.198.373.352.619.46.246.106.527.161.847.161a2.355 2.355 0 001.017-.224c.146-.07.285-.157.414-.258.13-.1.255-.212.377-.333l.097.468c.057.172.177.256.359.256h.862V92.09h-1.409v4.231c-.19.189-.391.338-.604.446a1.48 1.48 0 01-.684.163c-.331 0-.579-.097-.744-.292-.166-.197-.248-.473-.248-.83v-3.717h-.001zm3.04-1.518a.79.79 0 00-.488-.736.754.754 0 00-.608 0 .794.794 0 00-.416.426.76.76 0 00-.062.31.743.743 0 00.23.542.78.78 0 00.551.223.826.826 0 00.559-.223.74.74 0 00.234-.542zm.638-5.704c.258.266.562.464.912.599.35.135.728.203 1.135.203.206 0 .417-.016.636-.046a3.29 3.29 0 00.644-.157c.211-.074.414-.173.607-.296.194-.124.369-.277.525-.459l-.411-.514a.327.327 0 00-.109-.098.307.307 0 00-.147-.033.536.536 0 00-.271.08c-.093.052-.202.111-.325.176a2.808 2.808 0 01-.434.177c-.166.054-.362.08-.59.08-.463 0-.836-.141-1.117-.422-.282-.281-.443-.723-.485-1.323h3.616a.46.46 0 00.16-.025.22.22 0 00.1-.086.423.423 0 00.051-.165 3.131 3.131 0 00-.173-1.392 2.376 2.376 0 00-.524-.833 2.26 2.26 0 00-.801-.516 2.847 2.847 0 00-1.019-.177c-.438 0-.829.075-1.178.229a2.588 2.588 0 00-.884.618 2.712 2.712 0 00-.556.918c-.13.353-.194.728-.194 1.127 0 .514.074.965.223 1.354.147.39.351.717.609.981zm.599-2.883c.064-.427.212-.754.445-.986s.553-.349.964-.349c.208 0 .391.035.547.105.156.07.285.167.388.288.102.123.179.265.228.426s.074.332.074.516h-2.646zm1.745 10.105h-.827v5.851h1.409v-3.645c.145-.312.321-.547.53-.709s.459-.243.753-.243c.164 0 .295.014.394.04.099.027.177.04.234.04a.263.263 0 00.154-.042c.038-.029.062-.078.074-.146l.183-1.055c-.19-.134-.43-.2-.718-.2-.351 0-.666.105-.947.314-.282.21-.526.494-.736.855l-.085-.707c-.019-.13-.057-.221-.114-.274-.059-.053-.159-.079-.304-.079zm4.602-12.357h-1.409v3.718c0 .327.042.626.128.897.085.272.211.508.379.706.168.196.374.349.619.457.246.109.527.163.847.163a2.37 2.37 0 001.018-.225c.146-.071.284-.156.414-.256.129-.101.254-.213.375-.335l.098.468c.057.172.177.257.359.257h.862v-5.851h-1.409v4.231c-.19.189-.391.339-.604.447a1.493 1.493 0 01-.685.163c-.331 0-.579-.099-.744-.294-.165-.196-.248-.473-.248-.83v-3.716zm3.24 9.96h-1.54v8.247h1.54v-8.247zm2.366-9.915l-.941.154v.559c0 .1.027.174.083.223a.28.28 0 00.197.074h.593v3.267c0 .506.137.903.411 1.19.274.286.664.43 1.169.43.285 0 .562-.044.827-.131.266-.088.502-.217.707-.388l-.422-.685a.544.544 0 00-.085-.094.162.162 0 00-.103-.031.193.193 0 00-.103.031 2.296 2.296 0 01-.118.066 1.856 1.856 0 01-.153.065.664.664 0 01-.22.03.465.465 0 01-.365-.153c-.091-.104-.137-.245-.137-.427v-3.172h1.54v-1.004h-1.54V77.94h-.73a.334.334 0 00-.208.063.28.28 0 00-.105.176l-.297 1.6zm.268 12.312h-.861v5.851h1.409V93.71c.189-.19.391-.341.604-.45.212-.11.44-.165.684-.165.331 0 .579.097.744.293.166.195.248.473.248.829v3.725h1.409v-3.725c0-.326-.043-.625-.128-.897a2 2 0 00-.376-.701 1.693 1.693 0 00-.619-.457 2.102 2.102 0 00-.85-.163c-.198 0-.38.02-.547.058a2.188 2.188 0 00-.471.166 2.52 2.52 0 00-.416.257 3.222 3.222 0 00-.374.331l-.097-.462c-.056-.173-.176-.258-.359-.258zm4.11-6.62a3.408 3.408 0 001.143.205c.376 0 .71-.049 1.001-.145.29-.098.535-.232.732-.405.197-.173.348-.378.45-.615a1.94 1.94 0 00.154-.778 1.37 1.37 0 00-.123-.606 1.38 1.38 0 00-.325-.429 1.828 1.828 0 00-.459-.297 5.767 5.767 0 00-.524-.208 14.345 14.345 0 00-.525-.169 3.207 3.207 0 01-.458-.174 1.092 1.092 0 01-.325-.226.437.437 0 01-.123-.316c0-.189.08-.344.239-.462s.378-.177.656-.177c.178 0 .333.019.465.058.131.038.248.08.351.128.103.047.192.09.271.129a.517.517 0 00.219.057.31.31 0 00.16-.037.365.365 0 00.12-.128l.319-.509a2.52 2.52 0 00-.826-.524 2.952 2.952 0 00-1.101-.199c-.362 0-.68.049-.956.146a2.05 2.05 0 00-.69.388c-.185.161-.324.35-.419.566s-.143.445-.143.686c0 .258.041.478.122.66.083.183.19.337.325.462.135.127.289.229.462.311.172.081.349.153.53.214s.357.117.53.169.328.109.462.174c.135.064.243.142.325.228a.477.477 0 01.122.337.687.687 0 01-.054.266.593.593 0 01-.171.225.936.936 0 01-.297.157c-.12.04-.263.06-.431.06-.213 0-.389-.024-.527-.074a2.49 2.49 0 01-.362-.159 9.314 9.314 0 01-.271-.159.454.454 0 00-.465-.023.464.464 0 00-.148.148l-.325.536c.114.103.246.198.396.286.153.082.317.158.494.223zm1.765 6.671h-.874v.576c0 .103.034.182.101.239a.534.534 0 00.265.114l.508.08v4.79h1.408v-4.796h1.478v-1.004h-1.523v-.388c0-.217.023-.397.071-.544a.845.845 0 01.208-.354.729.729 0 01.333-.188 1.65 1.65 0 01.448-.055c.125 0 .236-.014.331-.04.095-.027.146-.096.154-.206l.028-.707a2.557 2.557 0 00-.753-.107c-.338 0-.642.05-.913.147a1.9 1.9 0 00-.687.429 1.872 1.872 0 00-.434.679 2.525 2.525 0 00-.151.9v.435h.002zm2.66-8.213c.139.374.327.691.565.949.237.259.516.455.835.59.319.135.659.203 1.021.203.206 0 .413-.016.622-.046s.411-.083.607-.157a2.74 2.74 0 00.567-.296c.183-.124.352-.277.507-.459l-.405-.514a.285.285 0 00-.257-.131.367.367 0 00-.236.082 6.172 6.172 0 01-.249.183 1.675 1.675 0 01-.35.183 1.484 1.484 0 01-.544.082 1.255 1.255 0 01-1.061-.504 1.77 1.77 0 01-.288-.613 3.141 3.141 0 01-.1-.832c0-.301.03-.569.092-.808.061-.237.153-.439.276-.607.123-.166.278-.295.465-.385.186-.089.403-.134.65-.134.193 0 .356.021.488.065.13.044.244.094.339.148.095.056.177.104.246.148a.392.392 0 00.211.065c.075 0 .133-.015.173-.045s.081-.073.123-.127l.371-.513a2.807 2.807 0 00-.887-.604 2.883 2.883 0 00-1.149-.212c-.46 0-.867.075-1.221.229-.353.152-.65.361-.89.629-.239.27-.421.587-.544.954a3.704 3.704 0 00-.185 1.194c0 .48.069.909.208 1.283zm.887 9.836a3.25 3.25 0 00-.194 1.126c0 .513.074.965.222 1.355.148.389.352.715.61.98.259.264.563.464.913.599.349.135.728.201 1.135.201.206 0 .417-.015.636-.045s.434-.082.645-.156c.211-.074.414-.174.607-.296.194-.124.369-.277.524-.46l-.411-.514a.303.303 0 00-.256-.131.54.54 0 00-.271.08c-.093.054-.202.111-.325.177-.123.064-.268.122-.433.176s-.362.08-.59.08c-.464 0-.837-.141-1.118-.421-.281-.282-.443-.724-.484-1.323h3.615a.455.455 0 00.16-.025.206.206 0 00.099-.086.44.44 0 00.051-.166 3.163 3.163 0 00-.173-1.392 2.365 2.365 0 00-.525-.832c-.224-.226-.491-.398-.801-.517s-.649-.178-1.019-.178c-.437 0-.83.077-1.177.229a2.607 2.607 0 00-1.44 1.539zm1.237.577c.064-.424.212-.754.445-.984.231-.232.553-.35.963-.35.209 0 .392.035.547.105.156.071.286.167.388.289.103.121.179.264.229.425.049.162.074.333.074.515h-2.646zm6.484-4.875h-1.409v8.475h1.409v-2.68h.319c.114 0 .2.014.257.04a.454.454 0 01.172.171l1.487 2.218c.061.093.129.157.205.194s.169.057.28.057h1.271l-1.95-2.839a3.66 3.66 0 00-.183-.246.996.996 0 00-.211-.199c.08-.05.154-.108.223-.175s.135-.141.199-.22l1.819-2.172h-1.289a.54.54 0 00-.285.065.87.87 0 00-.206.179l-1.453 1.797a.59.59 0 01-.171.148.52.52 0 01-.223.04h-.263v-4.853h.002zm5.276 2.669l-.941.154v.56c0 .098.028.172.084.222a.28.28 0 00.195.074h.594v3.268c0 .505.137.903.41 1.19.273.286.663.429 1.17.429.285 0 .561-.043.826-.13.266-.088.502-.217.707-.388l-.422-.685a.498.498 0 00-.085-.096.165.165 0 00-.104-.031.208.208 0 00-.103.031 1.295 1.295 0 01-.271.131.656.656 0 01-.219.031.466.466 0 01-.365-.154c-.091-.101-.137-.243-.137-.427v-3.171h1.54V92.14h-1.54V90.3h-.729c-.083 0-.152.021-.208.062s-.091.101-.105.177l-.297 1.597zm-.28-7.977c-.282-.281-.442-.723-.484-1.323h3.615a.455.455 0 00.16-.025.22.22 0 00.1-.086.46.46 0 00.051-.165c.01-.069.014-.158.014-.266 0-.422-.062-.797-.187-1.126a2.392 2.392 0 00-.525-.833 2.26 2.26 0 00-.801-.516 2.849 2.849 0 00-1.02-.177c-.437 0-.829.075-1.177.229a2.598 2.598 0 00-1.44 1.536c-.13.353-.194.728-.194 1.127 0 .514.074.965.222 1.354.148.39.353.717.61.98.259.266.563.464.913.599s.729.203 1.135.203c.205 0 .417-.016.636-.046s.435-.083.645-.157c.211-.074.413-.173.607-.296.193-.124.369-.277.524-.459l-.41-.514a.334.334 0 00-.108-.098.314.314 0 00-.148-.033.536.536 0 00-.271.08c-.093.052-.201.111-.325.176a2.714 2.714 0 01-.433.177c-.165.054-.362.08-.591.08-.463.001-.836-.14-1.118-.421zm-.456-2.173c.063-.427.212-.754.444-.986s.554-.349.964-.349c.209 0 .392.035.548.105s.285.167.388.288c.104.123.18.265.229.426.048.161.073.332.073.516h-2.646zm4.87 2.436l-.324.536c.114.103.245.198.396.286.149.086.312.162.489.227s.362.115.554.151c.192.035.39.054.589.054a3.19 3.19 0 001.002-.145c.29-.098.536-.232.732-.405.198-.173.35-.378.451-.615.104-.238.154-.498.154-.778 0-.236-.041-.438-.122-.606-.082-.166-.191-.31-.326-.429s-.288-.22-.458-.297a6.007 6.007 0 00-.524-.208 14.345 14.345 0 00-.525-.169 3.191 3.191 0 01-.46-.174 1.113 1.113 0 01-.324-.226.436.436 0 01-.122-.316c0-.189.079-.344.239-.462.158-.118.377-.177.655-.177.179 0 .334.019.465.058.132.038.247.08.351.128.103.047.192.09.271.129a.51.51 0 00.219.057.31.31 0 00.16-.037.355.355 0 00.119-.128l.32-.509a2.514 2.514 0 00-.827-.524 2.952 2.952 0 00-1.101-.199c-.361 0-.681.049-.955.146a2.05 2.05 0 00-.69.388c-.185.161-.324.35-.419.566s-.143.445-.143.686c0 .258.04.478.122.66.083.183.19.337.325.462.135.127.289.229.462.311s.35.153.53.214.357.117.53.169.327.109.462.174.243.142.326.228a.482.482 0 01.123.337.689.689 0 01-.055.266c-.037.085-.094.16-.172.225s-.177.117-.297.157c-.119.04-.263.06-.431.06-.213 0-.388-.024-.526-.074a2.398 2.398 0 01-.362-.159 7.23 7.23 0 01-.271-.159.451.451 0 00-.465-.023.411.411 0 00-.147.144zm-.151 5.609a.879.879 0 00.19.976c.081.08.174.144.281.191a.895.895 0 00.7 0 .928.928 0 00.484-.47.851.851 0 000-.697.93.93 0 00-.484-.476.874.874 0 00-.354-.07.846.846 0 00-.346.07.89.89 0 00-.471.476zm1.521 2.06h-1.41v5.851h1.41v-5.851zm1.392 1.665a3.569 3.569 0 00-.207 1.249c0 .464.069.882.207 1.254.139.374.334.69.589.953.253.263.558.464.914.605a3.27 3.27 0 001.191.209c.438 0 .834-.07 1.189-.209.355-.142.659-.343.911-.605.25-.263.443-.579.58-.953.138-.372.205-.79.205-1.254 0-.461-.067-.877-.205-1.249a2.651 2.651 0 00-.58-.946c-.252-.259-.556-.459-.911-.6s-.752-.212-1.189-.212c-.436 0-.833.071-1.191.212a2.597 2.597 0 00-.914.6c-.255.257-.45.573-.589.946zm1.248 1.26c0-.627.115-1.106.352-1.439.235-.334.602-.499 1.095-.499.487 0 .848.165 1.082.496.232.331.35.812.35 1.442 0 .632-.117 1.111-.35 1.438-.234.325-.595.49-1.082.49-.493 0-.859-.166-1.095-.493-.237-.329-.352-.807-.352-1.435zm3.232-16.457h4.118l-4.243 6.006a.939.939 0 00-.103.196.636.636 0 00-.04.221v.604h6.268v-1.227h-4.276l4.23-5.976a.827.827 0 00.148-.48v-.563h-6.103v1.219h.001zm3.063 13.532h-.861v5.851h1.408V93.71c.19-.19.392-.341.605-.45.212-.11.44-.165.684-.165.331 0 .579.097.743.293.166.195.248.473.248.829v3.725h1.41v-3.725c0-.326-.043-.625-.129-.897a2 2 0 00-.376-.701 1.684 1.684 0 00-.619-.457 2.102 2.102 0 00-.85-.163c-.198 0-.38.02-.548.058a2.161 2.161 0 00-.47.166 2.528 2.528 0 00-.417.257c-.13.099-.256.209-.374.331l-.097-.462c-.056-.173-.175-.258-.357-.258zm3.77-8.202c.147.39.351.717.609.98.26.266.563.464.913.599s.729.203 1.135.203c.205 0 .417-.016.636-.046s.435-.083.645-.157c.211-.074.414-.173.607-.296.194-.124.369-.277.525-.459l-.411-.514a.334.334 0 00-.108-.098.311.311 0 00-.148-.033.536.536 0 00-.271.08c-.094.052-.201.111-.323.176a2.822 2.822 0 01-.435.177c-.165.054-.362.08-.591.08-.464 0-.836-.141-1.118-.422-.28-.281-.441-.723-.483-1.323h3.615a.455.455 0 00.16-.025.22.22 0 00.1-.086.422.422 0 00.052-.165c.008-.069.013-.158.013-.266 0-.422-.062-.797-.188-1.126a2.376 2.376 0 00-.524-.833c-.225-.226-.492-.397-.802-.516s-.649-.177-1.017-.177c-.438 0-.83.075-1.18.229a2.603 2.603 0 00-1.44 1.536 3.255 3.255 0 00-.193 1.127c-.001.514.073.965.222 1.355zm1.209-1.903c.064-.427.212-.754.444-.986s.554-.349.964-.349c.209 0 .392.035.548.105a1.099 1.099 0 01.616.714c.05.161.075.332.075.516h-2.647zm.455 14.791l-.324.537c.114.103.245.197.396.285.15.087.313.164.491.229a3.405 3.405 0 001.144.204c.376 0 .709-.048 1-.145a2.09 2.09 0 00.733-.405c.197-.173.348-.378.45-.616.103-.236.154-.496.154-.777 0-.236-.042-.438-.123-.605a1.376 1.376 0 00-.326-.43 1.834 1.834 0 00-.457-.297c-.172-.078-.347-.148-.525-.209s-.354-.117-.524-.168c-.172-.051-.325-.109-.46-.174s-.243-.139-.324-.224a.44.44 0 01-.123-.317c0-.191.079-.345.239-.463.159-.117.378-.177.657-.177.178 0 .332.019.463.057.132.039.248.082.352.129.103.048.193.09.271.128.078.039.15.057.219.057a.317.317 0 00.159-.036.367.367 0 00.119-.129l.32-.506a2.433 2.433 0 00-.826-.525 2.913 2.913 0 00-1.101-.201c-.361 0-.68.049-.956.146-.275.097-.505.226-.689.388s-.325.351-.42.567-.143.444-.143.685c0 .259.041.479.122.661.083.183.191.337.326.462.135.126.289.23.462.312.172.082.35.153.53.213.18.062.357.117.53.168.173.053.327.109.461.176.136.064.243.14.326.228a.474.474 0 01.123.336.678.678 0 01-.055.266c-.037.085-.094.161-.172.226s-.176.116-.297.156a1.35 1.35 0 01-.429.06c-.213 0-.39-.024-.528-.074a2.34 2.34 0 01-.361-.159 5.24 5.24 0 01-.271-.159.455.455 0 00-.248-.074.416.416 0 00-.218.052.42.42 0 00-.147.142zm5.425-4.635h-.872v.576c0 .103.033.182.1.239a.526.526 0 00.265.114l.508.08v4.79h1.409v-4.796h1.477v-1.004h-1.523v-.388c0-.217.024-.397.072-.544a.835.835 0 01.208-.354.734.734 0 01.333-.188c.132-.037.281-.055.447-.055.126 0 .236-.014.331-.04.097-.027.147-.096.154-.206l.029-.707a2.563 2.563 0 00-.754-.107c-.338 0-.643.05-.912.147-.271.101-.5.242-.688.429a1.87 1.87 0 00-.433.679 2.503 2.503 0 00-.151.9v.435zm10.903-12.408h-.827v5.851h1.409V81.94c.145-.312.32-.548.528-.709a1.2 1.2 0 01.755-.243c.164 0 .295.013.395.04.098.026.176.04.232.04a.252.252 0 00.153-.043c.039-.029.063-.077.075-.146l.183-1.055c-.19-.134-.431-.199-.719-.199-.351 0-.666.104-.947.313s-.525.494-.734.855l-.087-.707c-.019-.129-.057-.222-.113-.273-.057-.052-.159-.079-.303-.079zm.154 12.357h-.827v5.851h1.409v-3.645c.145-.312.319-.547.53-.709.209-.162.46-.243.753-.243.164 0 .294.014.394.04a.94.94 0 00.232.04.26.26 0 00.154-.042c.039-.029.063-.078.076-.146l.181-1.055c-.189-.134-.429-.2-.719-.2-.349 0-.665.105-.946.314a2.79 2.79 0 00-.734.855l-.087-.707c-.018-.13-.057-.221-.114-.274-.056-.053-.156-.079-.302-.079zm15.665-2.624h-1.408v8.475h1.408V93.71c.191-.19.393-.341.605-.45.212-.11.441-.165.685-.165.33 0 .579.097.743.293.166.195.249.473.249.829v3.725h1.408v-3.725c0-.326-.042-.625-.127-.897a2.035 2.035 0 00-.377-.701 1.706 1.706 0 00-.618-.457 2.116 2.116 0 00-.852-.163c-.367 0-.689.067-.964.201a2.995 2.995 0 00-.753.525v-3.258h.001zm6.365 2.624h-1.408v3.719c0 .326.044.626.128.897.086.271.213.507.379.704.168.198.374.352.621.46.244.106.526.161.845.161a2.364 2.364 0 001.019-.224c.146-.07.284-.157.412-.258.13-.1.255-.212.378-.333l.098.468c.057.172.176.256.358.256h.861V92.09h-1.408v4.231a2.437 2.437 0 01-.605.446c-.212.109-.44.163-.684.163-.331 0-.579-.097-.744-.292-.165-.197-.249-.473-.249-.83v-3.717h-.001zm6.058 0h-.861v5.851h1.408V93.71c.19-.19.391-.341.604-.45.213-.11.442-.165.685-.165.33 0 .578.097.745.293.165.195.247.473.247.829v3.725h1.409v-3.725c0-.326-.042-.625-.129-.897a2.002 2.002 0 00-.377-.701 1.668 1.668 0 00-.619-.457 2.092 2.092 0 00-.85-.163 2.247 2.247 0 00-1.018.224 2.52 2.52 0 00-.416.257 3.134 3.134 0 00-.373.331l-.096-.462c-.056-.173-.178-.258-.359-.258z"/></svg>